<?xml version="1.0" standalone="no"?>
<!DOCTYPE svg PUBLIC "-//W3C//DTD SVG 20010904//EN"
 "http://www.w3.org/TR/2001/REC-SVG-20010904/DTD/svg10.dtd">
<svg version="1.0" xmlns="http://www.w3.org/2000/svg"
 width="260.000000pt" height="260.000000pt" viewBox="0 0 260.000000 260.000000"
 preserveAspectRatio="xMidYMid meet">
<metadata>
Created by potrace 1.14, written by Peter Selinger 2001-2017
</metadata>
<g transform="translate(0.000000,260.000000) scale(0.100000,-0.100000)"
fill="#000000" stroke="none">
<path d="M1380 2208 c-25 -29 -25 -29 -39 -9 -16 25 -44 27 -65 5 -13 -12 -27
-14 -65 -9 -44 6 -49 5 -48 -12 1 -10 11 -22 22 -27 19 -8 18 -9 -7 -18 -28
-10 -40 -48 -15 -48 8 0 8 -3 -2 -9 -17 -11 -32 -4 -81 38 -39 35 -47 37 -105
28 -5 -1 -13 -6 -17 -12 -5 -6 -8 -5 -8 3 0 20 -49 14 -62 -8 -9 -14 -19 -18
-36 -13 -12 3 -22 1 -21 -3 1 -5 1 -22 0 -39 -1 -22 -4 -26 -13 -17 -18 18
-46 14 -53 -8 -5 -15 -15 -20 -41 -20 -31 0 -34 -2 -36 -32 0 -18 -1 -41 0
-50 1 -10 -5 -18 -13 -18 -17 0 -80 -59 -71 -67 3 -4 -4 -11 -17 -17 -18 -10
-25 -8 -41 10 -19 21 -19 21 -39 1 -13 -13 -18 -28 -15 -48 4 -28 -5 -39 -17
-19 -10 16 -24 12 -46 -14 -12 -13 -32 -27 -45 -30 -15 -4 -24 -14 -24 -26 0
-18 -6 -19 -90 -14 l-91 5 7 -25 c4 -18 1 -27 -15 -36 -12 -6 -21 -16 -21 -22
0 -6 -8 -17 -17 -24 -16 -12 -16 -15 -3 -24 8 -5 11 -10 5 -10 -5 -1 2 -8 18
-16 35 -19 34 -39 -3 -54 -18 -8 -30 -20 -30 -31 0 -21 -4 -23 -29 -10 -25 14
-44 -2 -48 -41 -2 -18 -8 -34 -13 -36 -20 -7 -9 -21 23 -31 34 -12 67 -6 67
10 0 5 5 9 10 9 6 0 10 -9 10 -20 0 -11 7 -20 15 -20 8 0 16 -7 16 -15 3 -28
4 -33 10 -39 3 -4 12 0 19 9 7 8 18 15 26 15 7 0 16 9 19 20 3 11 11 20 16 20
6 0 8 -4 4 -9 -3 -6 2 -14 11 -19 11 -6 15 -16 11 -26 -4 -11 -3 -15 4 -10 6
4 15 0 20 -7 6 -10 9 -11 9 -1 0 6 5 12 12 12 6 0 8 -3 5 -7 -4 -3 0 -15 10
-25 9 -10 13 -21 9 -25 -4 -4 -11 -1 -15 6 -5 8 -17 11 -29 7 -11 -4 -23 -2
-27 4 -9 15 -25 12 -25 -4 0 -9 12 -16 27 -18 23 -2 28 -7 26 -30 -2 -30 31
-45 56 -25 12 10 14 9 8 -6 -4 -11 -1 -20 9 -24 8 -3 13 -12 10 -19 -3 -7 -1
-16 5 -19 5 -4 6 -11 3 -17 -4 -6 1 -8 16 -3 12 4 30 8 39 10 10 1 15 11 14
24 -3 27 7 27 36 0 27 -25 23 -43 -10 -46 -44 -3 -59 -9 -75 -31 -17 -25 -42
-29 -50 -8 -3 8 -12 12 -19 10 -7 -3 -16 -1 -20 5 -10 17 -21 13 -22 -8 -2
-24 38 -45 71 -37 16 4 30 1 40 -9 12 -12 20 -13 35 -5 14 7 22 7 26 0 5 -8
11 -7 21 1 18 15 18 29 -1 29 -8 0 -15 5 -15 10 0 6 13 8 30 5 17 -3 30 -1 30
5 0 5 -5 10 -11 10 -5 0 -7 5 -4 10 12 19 37 11 30 -9 -4 -14 1 -23 17 -32 13
-7 28 -19 34 -27 9 -13 12 -13 17 2 9 23 34 20 40 -6 2 -13 8 -31 12 -41 5
-12 3 -16 -6 -14 -8 2 -11 2 -6 0 4 -3 5 -8 2 -13 -6 -10 57 -6 74 4 6 4 11
14 11 22 0 8 7 14 15 14 19 0 19 14 -1 56 -11 23 -23 34 -37 34 -16 0 -18 3
-10 11 9 9 18 8 37 -4 23 -16 26 -16 35 1 9 15 10 15 11 -3 0 -12 -5 -26 -12
-33 -9 -9 -8 -12 6 -12 15 0 17 -6 13 -27 -3 -16 0 -35 6 -44 10 -13 16 -13
37 -2 19 10 21 13 7 13 -10 0 -15 5 -12 10 4 6 11 7 17 4 6 -4 8 -3 5 3 -8 12
31 46 43 38 6 -4 10 -15 10 -26 0 -10 5 -19 10 -19 18 0 11 -20 -7 -21 -13 0
-11 -3 7 -10 20 -8 22 -12 10 -19 -8 -5 -10 -10 -5 -10 6 0 -1 -7 -14 -14 -24
-13 -24 -14 -3 -25 25 -13 45 -14 38 -2 -3 5 1 14 10 21 8 7 13 19 10 27 -8
19 14 16 31 -4 10 -13 16 -15 19 -5 7 16 24 15 24 -2 0 -7 -9 -16 -20 -19 -13
-3 -18 -11 -14 -20 3 -9 -3 -16 -15 -20 -12 -3 -21 -11 -21 -19 0 -9 17 -14
57 -15 32 -1 52 2 45 6 -16 10 -5 41 15 41 9 0 13 -6 9 -15 -3 -8 -1 -15 4
-15 6 0 10 -10 10 -23 0 -13 5 -28 10 -33 11 -11 19 -52 46 -219 24 -153 15
-238 -25 -248 -9 -3 18 -5 60 -6 l76 -1 11 58 c6 31 14 78 18 104 5 38 14 55
44 82 21 18 58 66 84 105 25 39 62 86 81 105 30 29 42 35 76 33 l41 -1 -6 -39
c-5 -31 -4 -38 7 -34 8 3 20 0 26 -6 6 -6 30 -12 53 -14 24 -3 48 -9 55 -15
10 -8 13 -6 13 6 0 13 6 11 25 -10 15 -17 25 -22 25 -13 0 10 13 15 42 15 45
2 65 19 75 67 5 27 6 27 20 8 13 -19 49 -19 37 0 -3 5 1 9 9 9 8 0 14 6 13 13
-1 13 5 17 29 17 11 0 12 -5 5 -24 -7 -19 -5 -28 11 -42 10 -9 19 -25 19 -36
0 -10 4 -18 9 -18 14 0 32 26 23 34 -4 4 -7 19 -7 32 -1 17 3 23 13 19 7 -3
16 -5 18 -5 2 0 4 -6 4 -14 0 -14 36 -46 52 -46 17 0 2 40 -19 49 -15 7 -20
16 -17 26 4 10 2 13 -8 10 -8 -3 -23 4 -34 16 l-19 22 28 -5 c22 -4 25 -3 16
8 -6 8 -17 14 -24 14 -14 0 -40 28 -33 36 8 7 57 -14 75 -32 8 -8 13 -17 10
-21 -3 -3 3 -14 13 -26 11 -11 17 -24 14 -29 -4 -5 2 -9 12 -8 38 4 54 0 54
-15 0 -8 9 -15 20 -15 11 0 20 4 20 9 0 5 7 12 16 15 12 4 14 1 9 -14 -4 -11
-2 -20 4 -20 6 0 11 11 11 24 0 13 6 27 13 29 8 3 1 14 -18 30 -16 14 -34 23
-40 21 -20 -8 -16 45 5 56 16 8 18 8 14 -4 -7 -17 12 -31 22 -15 4 7 9 8 13 1
10 -16 101 -2 101 15 0 8 5 11 10 8 6 -3 10 2 10 13 0 15 5 18 24 15 17 -4 25
0 29 16 3 12 1 19 -4 15 -5 -3 -9 0 -9 5 0 6 -13 11 -30 11 -16 0 -30 2 -30 5
0 14 35 43 46 38 8 -3 14 0 14 6 0 6 -4 11 -9 11 -5 0 -11 7 -14 15 -5 11 -1
12 19 5 14 -6 33 -14 43 -19 15 -9 18 -5 19 27 1 39 -19 73 -51 85 -10 4 -17
13 -15 19 3 7 -1 19 -9 26 -18 19 -16 30 6 37 11 3 22 13 25 21 3 8 10 13 15
10 16 -10 32 49 28 100 -4 41 -8 50 -28 54 -19 5 -21 7 -8 12 12 4 15 14 12
32 -3 15 -1 26 6 26 6 0 11 5 11 11 0 5 -4 8 -9 5 -5 -3 -12 1 -15 9 -4 13
-10 14 -26 5 -15 -8 -20 -8 -20 1 0 8 -4 8 -15 -1 -12 -10 -18 -10 -30 0 -12
10 -16 9 -21 -4 -10 -26 -37 -20 -30 7 3 12 6 26 6 31 0 4 6 6 13 3 19 -7 14
43 -7 58 -15 12 -15 13 5 18 16 4 20 11 16 26 -3 12 -1 21 5 21 6 0 3 12 -7
26 -9 14 -14 35 -12 46 3 11 3 18 0 15 -9 -10 -30 17 -26 33 6 27 -12 43 -35
31 -26 -14 -88 -8 -127 13 -20 11 -24 16 -12 16 15 0 17 8 15 48 -2 26 -7 50
-13 55 -7 4 -7 10 0 15 15 11 15 42 -1 42 -8 0 -13 5 -11 11 3 17 -39 20 -53
4 -7 -8 -21 -15 -32 -15 -15 0 -19 6 -16 26 2 19 -3 30 -17 38 -11 6 -23 16
-27 21 -5 6 -8 5 -8 -2 0 -7 -4 -13 -10 -13 -5 0 -10 7 -10 15 0 22 -18 18
-25 -5 -8 -24 -23 -25 -52 -5 -14 10 -24 12 -28 5 -11 -18 -25 -11 -22 12 2
18 -6 25 -36 35 -41 14 -56 8 -69 -28 -4 -10 -16 -15 -32 -14 -31 4 -48 14
-41 25 3 5 -4 14 -15 20 -11 6 -18 15 -15 21 4 5 -1 12 -10 15 -9 4 -13 13
-10 23 4 14 -7 18 -65 28 -40 6 -86 7 -105 3 -27 -6 -35 -5 -35 6 0 8 -7 14
-16 14 -8 0 -25 5 -37 12 -34 19 -40 17 -67 -14z m90 -68 c0 -5 -2 -10 -4 -10
-3 0 -8 5 -11 10 -3 6 -1 10 4 10 6 0 11 -4 11 -10z m-440 -140 c-6 -11 -16
-18 -21 -14 -6 3 -3 12 8 20 24 18 26 17 13 -6z m1140 -50 c0 -5 -7 -10 -16
-10 -8 0 -12 5 -9 10 3 6 10 10 16 10 5 0 9 -4 9 -10z m20 -204 c0 -3 -4 -8
-10 -11 -5 -3 -10 -1 -10 4 0 6 5 11 10 11 6 0 10 -2 10 -4z m-1575 -46 c3 -5
-1 -10 -10 -10 -9 0 -13 5 -10 10 3 6 8 10 10 10 2 0 7 -4 10 -10z m815 -285
c0 -8 -2 -15 -4 -15 -2 0 -6 7 -10 15 -3 8 -1 15 4 15 6 0 10 -7 10 -15z
m1095 -165 c3 -5 -1 -10 -9 -10 -9 0 -16 5 -16 10 0 6 4 10 9 10 6 0 13 -4 16
-10z m-2105 -44 c0 -7 -9 -16 -19 -19 -17 -4 -18 -2 -8 14 14 22 27 25 27 5z
m2063 -29 c13 -21 13 -23 -3 -24 -12 -1 -20 7 -23 23 -5 30 6 31 26 1z m-2042
-50 c-1 -12 -15 -9 -19 4 -3 6 1 10 8 8 6 -3 11 -8 11 -12z m969 -71 c0 -3 -4
-8 -10 -11 -5 -3 -10 -1 -10 4 0 6 5 11 10 11 6 0 10 -2 10 -4z m-50 -56 c0
-5 -4 -10 -10 -10 -5 0 -10 5 -10 10 0 6 5 10 10 10 6 0 10 -4 10 -10z m7 -46
c-3 -3 -12 -4 -19 -1 -8 3 -5 6 6 6 11 1 17 -2 13 -5z m723 -85 c0 -5 -9 -9
-19 -9 -11 0 -22 4 -25 9 -3 5 6 9 19 9 14 0 25 -4 25 -9z m-574 -39 c13 0 24
5 24 10 0 17 14 11 28 -11 11 -17 11 -24 2 -33 -9 -8 -14 -8 -17 2 -7 19 -21
14 -29 -10 -4 -13 -21 -39 -38 -58 -17 -19 -39 -46 -48 -59 -10 -14 -21 -22
-24 -18 -4 4 -2 13 5 21 7 8 9 25 6 39 -4 15 -1 30 8 38 7 8 12 20 9 27 -2 7
5 12 18 12 19 0 20 2 10 15 -10 12 -10 18 1 31 8 10 15 12 17 5 2 -6 15 -11
28 -11z m748 -41 c-3 -5 -14 -9 -25 -9 -11 0 -17 5 -14 10 4 6 11 8 16 5 5 -4
6 2 2 12 -6 16 -5 16 10 4 9 -7 14 -17 11 -22z m-481 7 c4 -10 1 -13 -9 -9 -7
3 -14 9 -14 14 0 14 17 10 23 -5z m247 -10 c0 -2 -7 -7 -16 -10 -8 -3 -12 -2
-9 4 6 10 25 14 25 6z m300 -26 c0 -5 -7 -10 -15 -10 -8 0 -15 5 -15 10 0 6 7
10 15 10 8 0 15 -4 15 -10z m-1079 -39 c10 15 1 -38 -9 -56 -7 -11 -20 28 -21
60 0 19 0 19 10 1 9 -15 13 -16 20 -5z m529 -16 c0 -8 -4 -15 -10 -15 -5 0
-10 7 -10 15 0 8 5 15 10 15 6 0 10 -7 10 -15z m-444 -73 c-6 -41 -16 -61 -38
-73 -31 -16 -34 -2 -9 39 12 20 25 45 28 54 8 27 23 11 19 -20z"/>
<path d="M1465 760 c3 -5 8 -10 11 -10 2 0 4 5 4 10 0 6 -5 10 -11 10 -5 0 -7
-4 -4 -10z"/>
<path d="M2123 626 c0 -8 8 -11 19 -8 10 2 18 8 18 13 0 5 -8 9 -18 9 -10 0
-19 -6 -19 -14z"/>
</g>
</svg>
